<mxfile host="app.diagrams.net" agent="Mozilla/5.0 (Windows NT 10.0; Win64; x64) AppleWebKit/537.36 (KHTML, like Gecko) Chrome/136.0.0.0 Safari/537.36" version="27.0.9">
  <diagram name="Page-1" id="Ae24SmXNrmSHU0zeSzQI">
    <mxGraphModel dx="682" dy="958" grid="1" gridSize="10" guides="1" tooltips="1" connect="1" arrows="1" fold="1" page="1" pageScale="1" pageWidth="827" pageHeight="1169" math="0" shadow="0">
      <root>
        <mxCell id="0" />
        <mxCell id="1" parent="0" />
        <mxCell id="R4bxm3PCdh7wQqd6fH6H-1" value="1&lt;div&gt;allitems == null?&lt;/div&gt;" style="ellipse;whiteSpace=wrap;html=1;" vertex="1" parent="1">
          <mxGeometry x="300" y="10" width="120" height="80" as="geometry" />
        </mxCell>
        <mxCell id="R4bxm3PCdh7wQqd6fH6H-4" value="true" style="edgeStyle=segmentEdgeStyle;endArrow=classic;html=1;curved=0;rounded=0;endSize=8;startSize=8;exitX=0;exitY=0.5;exitDx=0;exitDy=0;" edge="1" parent="1" source="R4bxm3PCdh7wQqd6fH6H-1">
          <mxGeometry x="-0.1398" width="50" height="50" relative="1" as="geometry">
            <mxPoint x="240" y="20" as="sourcePoint" />
            <mxPoint x="240.5" y="140" as="targetPoint" />
            <Array as="points">
              <mxPoint x="241" y="80" />
            </Array>
            <mxPoint as="offset" />
          </mxGeometry>
        </mxCell>
        <mxCell id="R4bxm3PCdh7wQqd6fH6H-5" value="false" style="edgeStyle=segmentEdgeStyle;endArrow=classic;html=1;curved=0;rounded=0;endSize=8;startSize=8;entryX=0.5;entryY=0;entryDx=0;entryDy=0;" edge="1" parent="1" target="R4bxm3PCdh7wQqd6fH6H-7">
          <mxGeometry x="-0.1429" width="50" height="50" relative="1" as="geometry">
            <mxPoint x="420" y="50" as="sourcePoint" />
            <mxPoint x="500" y="110" as="targetPoint" />
            <Array as="points">
              <mxPoint x="520" y="50" />
            </Array>
            <mxPoint as="offset" />
          </mxGeometry>
        </mxCell>
        <mxCell id="R4bxm3PCdh7wQqd6fH6H-6" value="&lt;span style=&quot;text-align: start; background-color: transparent; color: light-dark(rgb(0, 0, 0), rgb(255, 255, 255));&quot;&gt;throw new RuntimeException(&quot;allItems list can&#39;t be null!&quot;);&lt;/span&gt;" style="ellipse;whiteSpace=wrap;html=1;" vertex="1" parent="1">
          <mxGeometry x="150" y="140" width="170" height="100" as="geometry" />
        </mxCell>
        <mxCell id="R4bxm3PCdh7wQqd6fH6H-10" value="true" style="edgeStyle=orthogonalEdgeStyle;rounded=0;orthogonalLoop=1;jettySize=auto;html=1;" edge="1" parent="1" source="R4bxm3PCdh7wQqd6fH6H-7" target="R4bxm3PCdh7wQqd6fH6H-11">
          <mxGeometry relative="1" as="geometry">
            <mxPoint x="520" y="310" as="targetPoint" />
          </mxGeometry>
        </mxCell>
        <mxCell id="R4bxm3PCdh7wQqd6fH6H-39" value="false" style="edgeStyle=orthogonalEdgeStyle;rounded=0;orthogonalLoop=1;jettySize=auto;html=1;" edge="1" parent="1" source="R4bxm3PCdh7wQqd6fH6H-7">
          <mxGeometry relative="1" as="geometry">
            <mxPoint x="1261" y="300" as="targetPoint" />
          </mxGeometry>
        </mxCell>
        <mxCell id="R4bxm3PCdh7wQqd6fH6H-7" value="&lt;span style=&quot;text-align: start; background-color: transparent; color: light-dark(rgb(0, 0, 0), rgb(255, 255, 255));&quot;&gt;i &amp;lt; allItems.size()&lt;/span&gt;" style="ellipse;whiteSpace=wrap;html=1;" vertex="1" parent="1">
          <mxGeometry x="440" y="140" width="160" height="100" as="geometry" />
        </mxCell>
        <mxCell id="R4bxm3PCdh7wQqd6fH6H-12" value="true" style="edgeStyle=orthogonalEdgeStyle;rounded=0;orthogonalLoop=1;jettySize=auto;html=1;" edge="1" parent="1" source="R4bxm3PCdh7wQqd6fH6H-11">
          <mxGeometry x="-0.2115" relative="1" as="geometry">
            <mxPoint x="360" y="420" as="targetPoint" />
            <mxPoint as="offset" />
          </mxGeometry>
        </mxCell>
        <mxCell id="R4bxm3PCdh7wQqd6fH6H-13" value="false" style="edgeStyle=orthogonalEdgeStyle;rounded=0;orthogonalLoop=1;jettySize=auto;html=1;exitX=1;exitY=0.5;exitDx=0;exitDy=0;" edge="1" parent="1" source="R4bxm3PCdh7wQqd6fH6H-11">
          <mxGeometry x="-0.2171" relative="1" as="geometry">
            <mxPoint x="680" y="420" as="targetPoint" />
            <mxPoint as="offset" />
          </mxGeometry>
        </mxCell>
        <mxCell id="R4bxm3PCdh7wQqd6fH6H-11" value="&lt;span style=&quot;text-align: start; background-color: transparent; color: light-dark(rgb(0, 0, 0), rgb(255, 255, 255));&quot;&gt;item.getName() == null || item.getName().length() == 0&lt;/span&gt;" style="ellipse;whiteSpace=wrap;html=1;" vertex="1" parent="1">
          <mxGeometry x="435" y="300" width="170" height="110" as="geometry" />
        </mxCell>
        <mxCell id="R4bxm3PCdh7wQqd6fH6H-14" value="&lt;span style=&quot;text-align: start; background-color: transparent; color: light-dark(rgb(0, 0, 0), rgb(255, 255, 255));&quot;&gt;throw new RuntimeException(&quot;Invalid item!&quot;)&lt;/span&gt;" style="ellipse;whiteSpace=wrap;html=1;" vertex="1" parent="1">
          <mxGeometry x="260" y="420" width="210" height="100" as="geometry" />
        </mxCell>
        <mxCell id="R4bxm3PCdh7wQqd6fH6H-16" value="true" style="edgeStyle=orthogonalEdgeStyle;rounded=0;orthogonalLoop=1;jettySize=auto;html=1;" edge="1" parent="1" source="R4bxm3PCdh7wQqd6fH6H-15">
          <mxGeometry x="-0.3333" relative="1" as="geometry">
            <mxPoint x="519.9999999999998" y="530" as="targetPoint" />
            <Array as="points">
              <mxPoint x="520" y="470" />
            </Array>
            <mxPoint as="offset" />
          </mxGeometry>
        </mxCell>
        <mxCell id="R4bxm3PCdh7wQqd6fH6H-17" value="false" style="edgeStyle=orthogonalEdgeStyle;rounded=0;orthogonalLoop=1;jettySize=auto;html=1;" edge="1" parent="1" source="R4bxm3PCdh7wQqd6fH6H-15">
          <mxGeometry x="-0.457" relative="1" as="geometry">
            <mxPoint x="829.9999999999998" y="530" as="targetPoint" />
            <mxPoint as="offset" />
          </mxGeometry>
        </mxCell>
        <mxCell id="R4bxm3PCdh7wQqd6fH6H-15" value="&lt;span style=&quot;text-align: start; background-color: transparent; color: light-dark(rgb(0, 0, 0), rgb(255, 255, 255));&quot;&gt;item.getPrice() &amp;gt; 300 || item.getDiscount() &amp;gt; 0 || item.getQuantity() &amp;gt; 10&lt;/span&gt;" style="ellipse;whiteSpace=wrap;html=1;" vertex="1" parent="1">
          <mxGeometry x="580" y="420" width="200" height="100" as="geometry" />
        </mxCell>
        <mxCell id="R4bxm3PCdh7wQqd6fH6H-20" style="edgeStyle=orthogonalEdgeStyle;rounded=0;orthogonalLoop=1;jettySize=auto;html=1;entryX=0;entryY=0.5;entryDx=0;entryDy=0;" edge="1" parent="1" source="R4bxm3PCdh7wQqd6fH6H-18" target="R4bxm3PCdh7wQqd6fH6H-19">
          <mxGeometry relative="1" as="geometry" />
        </mxCell>
        <mxCell id="R4bxm3PCdh7wQqd6fH6H-18" value="&lt;span style=&quot;text-align: start; background-color: transparent; color: light-dark(rgb(0, 0, 0), rgb(255, 255, 255));&quot;&gt;sum -= 30;&lt;/span&gt;" style="ellipse;whiteSpace=wrap;html=1;" vertex="1" parent="1">
          <mxGeometry x="460" y="530" width="120" height="90" as="geometry" />
        </mxCell>
        <mxCell id="R4bxm3PCdh7wQqd6fH6H-21" value="true" style="edgeStyle=orthogonalEdgeStyle;rounded=0;orthogonalLoop=1;jettySize=auto;html=1;" edge="1" parent="1" source="R4bxm3PCdh7wQqd6fH6H-19">
          <mxGeometry relative="1" as="geometry">
            <mxPoint x="760" y="680" as="targetPoint" />
          </mxGeometry>
        </mxCell>
        <mxCell id="R4bxm3PCdh7wQqd6fH6H-71" style="edgeStyle=orthogonalEdgeStyle;rounded=0;orthogonalLoop=1;jettySize=auto;html=1;" edge="1" parent="1" source="R4bxm3PCdh7wQqd6fH6H-19">
          <mxGeometry relative="1" as="geometry">
            <mxPoint x="950" y="630" as="targetPoint" />
          </mxGeometry>
        </mxCell>
        <mxCell id="R4bxm3PCdh7wQqd6fH6H-19" value="&lt;span style=&quot;text-align: start; background-color: transparent; color: light-dark(rgb(0, 0, 0), rgb(255, 255, 255));&quot;&gt;item.getDiscount() &amp;gt; 0&lt;/span&gt;" style="ellipse;whiteSpace=wrap;html=1;" vertex="1" parent="1">
          <mxGeometry x="750" y="530" width="140" height="90" as="geometry" />
        </mxCell>
        <mxCell id="R4bxm3PCdh7wQqd6fH6H-24" value="&lt;span style=&quot;text-align: start; background-color: transparent; color: light-dark(rgb(0, 0, 0), rgb(255, 255, 255));&quot;&gt;sum += item.getPrice()*(1-item.getDiscount())*item.getQuantity();&lt;/span&gt;" style="ellipse;whiteSpace=wrap;html=1;" vertex="1" parent="1">
          <mxGeometry x="620" y="680" width="220" height="130" as="geometry" />
        </mxCell>
        <mxCell id="R4bxm3PCdh7wQqd6fH6H-78" value="" style="edgeStyle=orthogonalEdgeStyle;rounded=0;orthogonalLoop=1;jettySize=auto;html=1;" edge="1" parent="1" source="R4bxm3PCdh7wQqd6fH6H-25" target="R4bxm3PCdh7wQqd6fH6H-77">
          <mxGeometry relative="1" as="geometry" />
        </mxCell>
        <mxCell id="R4bxm3PCdh7wQqd6fH6H-25" value="&lt;span style=&quot;text-align: start; background-color: transparent; color: light-dark(rgb(0, 0, 0), rgb(255, 255, 255));&quot;&gt;sum += item.getPrice()*item.getQuantity()&lt;/span&gt;" style="ellipse;whiteSpace=wrap;html=1;" vertex="1" parent="1">
          <mxGeometry x="860" y="630" width="210" height="130" as="geometry" />
        </mxCell>
        <mxCell id="R4bxm3PCdh7wQqd6fH6H-41" value="false" style="edgeStyle=orthogonalEdgeStyle;rounded=0;orthogonalLoop=1;jettySize=auto;html=1;" edge="1" parent="1" source="R4bxm3PCdh7wQqd6fH6H-40">
          <mxGeometry x="-0.4649" relative="1" as="geometry">
            <mxPoint x="1100" y="440" as="targetPoint" />
            <mxPoint as="offset" />
          </mxGeometry>
        </mxCell>
        <mxCell id="R4bxm3PCdh7wQqd6fH6H-42" style="edgeStyle=orthogonalEdgeStyle;rounded=0;orthogonalLoop=1;jettySize=auto;html=1;" edge="1" parent="1" source="R4bxm3PCdh7wQqd6fH6H-40">
          <mxGeometry relative="1" as="geometry">
            <mxPoint x="1440" y="440" as="targetPoint" />
          </mxGeometry>
        </mxCell>
        <mxCell id="R4bxm3PCdh7wQqd6fH6H-40" value="&lt;span style=&quot;text-align: start; background-color: transparent; color: light-dark(rgb(0, 0, 0), rgb(255, 255, 255));&quot;&gt;cardNumber != null &amp;amp;&amp;amp; cardNumber.length() == 16&lt;/span&gt;" style="ellipse;whiteSpace=wrap;html=1;" vertex="1" parent="1">
          <mxGeometry x="1160" y="300" width="200" height="100" as="geometry" />
        </mxCell>
        <mxCell id="R4bxm3PCdh7wQqd6fH6H-45" style="edgeStyle=orthogonalEdgeStyle;rounded=0;orthogonalLoop=1;jettySize=auto;html=1;" edge="1" parent="1" source="R4bxm3PCdh7wQqd6fH6H-43" target="R4bxm3PCdh7wQqd6fH6H-46">
          <mxGeometry relative="1" as="geometry">
            <mxPoint x="1100" y="600" as="targetPoint" />
          </mxGeometry>
        </mxCell>
        <mxCell id="R4bxm3PCdh7wQqd6fH6H-43" value="&lt;span style=&quot;text-align: start; background-color: transparent; color: light-dark(rgb(0, 0, 0), rgb(255, 255, 255));&quot;&gt;throw new RuntimeException(&quot;Invalid card number!&quot;)&lt;/span&gt;" style="ellipse;whiteSpace=wrap;html=1;" vertex="1" parent="1">
          <mxGeometry x="1020" y="440" width="160" height="100" as="geometry" />
        </mxCell>
        <mxCell id="R4bxm3PCdh7wQqd6fH6H-52" value="true" style="edgeStyle=orthogonalEdgeStyle;rounded=0;orthogonalLoop=1;jettySize=auto;html=1;" edge="1" parent="1" source="R4bxm3PCdh7wQqd6fH6H-44" target="R4bxm3PCdh7wQqd6fH6H-51">
          <mxGeometry x="-0.1489" relative="1" as="geometry">
            <mxPoint as="offset" />
          </mxGeometry>
        </mxCell>
        <mxCell id="R4bxm3PCdh7wQqd6fH6H-56" value="false" style="edgeStyle=orthogonalEdgeStyle;rounded=0;orthogonalLoop=1;jettySize=auto;html=1;" edge="1" parent="1" source="R4bxm3PCdh7wQqd6fH6H-44" target="R4bxm3PCdh7wQqd6fH6H-55">
          <mxGeometry relative="1" as="geometry" />
        </mxCell>
        <mxCell id="R4bxm3PCdh7wQqd6fH6H-44" value="&lt;span style=&quot;text-align: start; background-color: transparent; color: light-dark(rgb(0, 0, 0), rgb(255, 255, 255));&quot;&gt;j &amp;lt; cardNumber.length()&lt;/span&gt;" style="ellipse;whiteSpace=wrap;html=1;" vertex="1" parent="1">
          <mxGeometry x="1350" y="440" width="180" height="80" as="geometry" />
        </mxCell>
        <mxCell id="R4bxm3PCdh7wQqd6fH6H-46" value="&lt;span style=&quot;text-align: start; background-color: transparent; color: light-dark(rgb(0, 0, 0), rgb(255, 255, 255));&quot;&gt;return sum;&lt;/span&gt;" style="ellipse;whiteSpace=wrap;html=1;" vertex="1" parent="1">
          <mxGeometry x="1040" y="600" width="120" height="80" as="geometry" />
        </mxCell>
        <mxCell id="R4bxm3PCdh7wQqd6fH6H-61" value="true" style="edgeStyle=orthogonalEdgeStyle;rounded=0;orthogonalLoop=1;jettySize=auto;html=1;" edge="1" parent="1" source="R4bxm3PCdh7wQqd6fH6H-51" target="R4bxm3PCdh7wQqd6fH6H-62">
          <mxGeometry relative="1" as="geometry">
            <mxPoint x="1540" y="750" as="targetPoint" />
          </mxGeometry>
        </mxCell>
        <mxCell id="R4bxm3PCdh7wQqd6fH6H-64" style="edgeStyle=orthogonalEdgeStyle;rounded=0;orthogonalLoop=1;jettySize=auto;html=1;entryX=0.5;entryY=0;entryDx=0;entryDy=0;" edge="1" parent="1" source="R4bxm3PCdh7wQqd6fH6H-51" target="R4bxm3PCdh7wQqd6fH6H-68">
          <mxGeometry relative="1" as="geometry">
            <mxPoint x="1820" y="755" as="targetPoint" />
          </mxGeometry>
        </mxCell>
        <mxCell id="R4bxm3PCdh7wQqd6fH6H-66" value="false" style="edgeLabel;html=1;align=center;verticalAlign=middle;resizable=0;points=[];" vertex="1" connectable="0" parent="R4bxm3PCdh7wQqd6fH6H-64">
          <mxGeometry x="0.0025" y="4" relative="1" as="geometry">
            <mxPoint x="-4" y="25" as="offset" />
          </mxGeometry>
        </mxCell>
        <mxCell id="R4bxm3PCdh7wQqd6fH6H-51" value="&lt;span style=&quot;text-align: start;&quot;&gt;allowed.indexOf(c) == -1&lt;/span&gt;" style="ellipse;whiteSpace=wrap;html=1;" vertex="1" parent="1">
          <mxGeometry x="1570" y="600" width="180" height="80" as="geometry" />
        </mxCell>
        <mxCell id="R4bxm3PCdh7wQqd6fH6H-60" style="edgeStyle=orthogonalEdgeStyle;rounded=0;orthogonalLoop=1;jettySize=auto;html=1;entryX=1;entryY=0.5;entryDx=0;entryDy=0;" edge="1" parent="1" source="R4bxm3PCdh7wQqd6fH6H-55" target="R4bxm3PCdh7wQqd6fH6H-46">
          <mxGeometry relative="1" as="geometry" />
        </mxCell>
        <mxCell id="R4bxm3PCdh7wQqd6fH6H-55" value="" style="ellipse;whiteSpace=wrap;html=1;" vertex="1" parent="1">
          <mxGeometry x="1350" y="600" width="180" height="80" as="geometry" />
        </mxCell>
        <mxCell id="R4bxm3PCdh7wQqd6fH6H-62" value="&lt;span style=&quot;text-align: start; background-color: transparent; color: light-dark(rgb(0, 0, 0), rgb(255, 255, 255));&quot;&gt;throw new RuntimeException(&quot;Invalid character in card number!&quot;)&lt;/span&gt;" style="ellipse;whiteSpace=wrap;html=1;" vertex="1" parent="1">
          <mxGeometry x="1450" y="740" width="200" height="110" as="geometry" />
        </mxCell>
        <mxCell id="R4bxm3PCdh7wQqd6fH6H-69" style="edgeStyle=orthogonalEdgeStyle;rounded=0;orthogonalLoop=1;jettySize=auto;html=1;entryX=0;entryY=0.5;entryDx=0;entryDy=0;" edge="1" parent="1" target="R4bxm3PCdh7wQqd6fH6H-44">
          <mxGeometry relative="1" as="geometry">
            <mxPoint x="1329.69" y="510" as="targetPoint" />
            <mxPoint x="1760.0037303340314" y="880" as="sourcePoint" />
            <Array as="points">
              <mxPoint x="1230" y="880" />
              <mxPoint x="1230" y="480" />
            </Array>
          </mxGeometry>
        </mxCell>
        <mxCell id="R4bxm3PCdh7wQqd6fH6H-68" value="" style="ellipse;whiteSpace=wrap;html=1;" vertex="1" parent="1">
          <mxGeometry x="1760" y="840" width="120" height="80" as="geometry" />
        </mxCell>
        <mxCell id="R4bxm3PCdh7wQqd6fH6H-77" value="" style="ellipse;whiteSpace=wrap;html=1;" vertex="1" parent="1">
          <mxGeometry x="860" y="840" width="210" height="130" as="geometry" />
        </mxCell>
        <mxCell id="R4bxm3PCdh7wQqd6fH6H-80" style="edgeStyle=orthogonalEdgeStyle;rounded=0;orthogonalLoop=1;jettySize=auto;html=1;exitX=1;exitY=1;exitDx=0;exitDy=0;entryX=0.25;entryY=0.041;entryDx=0;entryDy=0;entryPerimeter=0;" edge="1" parent="1" source="R4bxm3PCdh7wQqd6fH6H-24" target="R4bxm3PCdh7wQqd6fH6H-77">
          <mxGeometry relative="1" as="geometry" />
        </mxCell>
        <mxCell id="R4bxm3PCdh7wQqd6fH6H-81" style="edgeStyle=orthogonalEdgeStyle;rounded=0;orthogonalLoop=1;jettySize=auto;html=1;entryX=0.214;entryY=0.949;entryDx=0;entryDy=0;entryPerimeter=0;" edge="1" parent="1" source="R4bxm3PCdh7wQqd6fH6H-77" target="R4bxm3PCdh7wQqd6fH6H-7">
          <mxGeometry relative="1" as="geometry" />
        </mxCell>
      </root>
    </mxGraphModel>
  </diagram>
</mxfile>
